<svg width="16" height="16" viewBox="0 0 16 16" fill="none" xmlns="http://www.w3.org/2000/svg">
<path d="M7.99997 0.114258C3.65712 0.114258 0.114258 3.65712 0.114258 7.99997C0.114258 12.3428 3.65712 15.8857 7.99997 15.8857C12.3428 15.8857 15.8857 12.3428 15.8857 7.99997C15.8857 3.65712 12.3428 0.114258 7.99997 0.114258ZM7.99997 1.3714C9.71426 1.3714 11.2 2.05712 12.3428 2.9714C12.2285 3.19997 12 3.31426 11.7714 3.65712C11.2 4.22854 10.2857 4.91426 8.91426 5.3714C7.99997 3.65711 7.08569 2.39997 6.51426 1.59997C6.9714 1.48569 7.54283 1.3714 7.99997 1.3714ZM5.25712 2.05711C5.71426 2.74283 6.74283 3.99997 7.65711 5.82854C5.02854 6.51426 2.51426 6.62854 1.59997 6.62854C1.94283 4.5714 3.31426 2.85712 5.25712 2.05711ZM13.2571 3.99997C14.0571 5.02854 14.5143 6.39997 14.6285 7.7714C14.0571 7.65712 13.1428 7.54283 12 7.54283C11.4285 7.54283 10.7428 7.54283 10.0571 7.65711C9.94283 7.31426 9.71426 6.9714 9.48569 6.51426C10.9714 5.94283 12 5.14283 12.6857 4.5714C12.9143 4.45712 13.1428 4.22854 13.2571 3.99997ZM8.22854 6.9714C8.34283 7.31426 8.5714 7.54283 8.68569 7.88569C5.82854 8.68569 3.88569 11.0857 2.9714 12.2285C2.05712 11.2 1.3714 9.59997 1.3714 7.99997C1.3714 7.99997 1.3714 7.99997 1.3714 7.88569C2.28569 7.88569 5.14283 7.88569 8.22854 6.9714ZM12 8.91426C13.1428 8.91426 13.9428 9.02854 14.5143 9.25712C14.1714 10.9714 13.2571 12.5714 11.7714 13.4857C11.5428 11.7714 11.0857 10.2857 10.6285 8.91426C11.0857 8.91426 11.5428 8.91426 12 8.91426ZM9.25712 9.14283C9.82854 10.6285 10.4 12.3428 10.6285 14.0571C9.82854 14.4 8.91426 14.6285 7.99997 14.6285C6.51426 14.6285 5.14283 14.1714 3.99997 13.2571C4.68569 12.3428 6.62854 9.82854 9.25712 9.14283Z" fill="white"/>
</svg>
