<svg width="16" height="16" viewBox="0 0 16 16" fill="none" xmlns="http://www.w3.org/2000/svg">
<path d="M8 0C5.82666 0 5.55534 0.01 4.702 0.048C3.85 0.088 3.27 0.222 2.76 0.42C2.234 0.624 1.78734 0.898 1.34266 1.34266C0.898 1.78734 0.623334 2.23334 0.42 2.76C0.222 3.27 0.0873334 3.85 0.048 4.702C0.008 5.55534 0 5.82666 0 8C0 10.1733 0.01 10.4447 0.048 11.298C0.088 12.1494 0.222 12.7301 0.42 13.24C0.624 13.7654 0.898 14.2127 1.34266 14.6574C1.78734 15.1014 2.23334 15.3767 2.76 15.58C3.27066 15.7774 3.85066 15.9127 4.702 15.952C5.55534 15.992 5.82666 16 8 16C10.1733 16 10.4447 15.9899 11.298 15.952C12.1494 15.912 12.7301 15.7774 13.24 15.58C13.7654 15.376 14.2127 15.1014 14.6574 14.6574C15.1014 14.2127 15.3767 13.7673 15.58 13.24C15.7774 12.7301 15.9127 12.1494 15.952 11.298C15.992 10.4447 16 10.1733 16 8C16 5.82666 15.9899 5.55534 15.952 4.702C15.912 3.85066 15.7774 3.26934 15.58 2.76C15.376 2.234 15.1014 1.78734 14.6574 1.34266C14.2127 0.898 13.7673 0.623334 13.24 0.42C12.7301 0.222 12.1494 0.0873334 11.298 0.048C10.4447 0.008 10.1733 0 8 0ZM8 1.44C10.1353 1.44 10.39 1.45066 11.2333 1.48734C12.0134 1.524 12.4367 1.65334 12.7179 1.764C13.0927 1.90866 13.3579 2.082 13.6393 2.36134C13.9186 2.64134 14.092 2.90734 14.2367 3.282C14.3459 3.56334 14.4767 3.98666 14.512 4.76666C14.5499 5.61066 14.5586 5.864 14.5586 8C14.5586 10.136 14.5487 10.39 14.5094 11.2333C14.4687 12.0134 14.3386 12.4367 14.2287 12.7179C14.0793 13.0927 13.9094 13.3579 13.6294 13.6393C13.3499 13.9186 13.08 14.092 12.7094 14.2367C12.4294 14.3459 11.9993 14.4767 11.2193 14.512C10.37 14.5499 10.12 14.5586 7.98 14.5586C5.83934 14.5586 5.58934 14.5487 4.74066 14.5094C3.96 14.4687 3.53 14.3386 3.25 14.2287C2.87066 14.0793 2.61 13.9094 2.33066 13.6294C2.05 13.3499 1.87066 13.08 1.73066 12.7094C1.62066 12.4294 1.49134 11.9993 1.45066 11.2193C1.42066 10.3793 1.41 10.12 1.41 7.99C1.41 5.85934 1.42066 5.59934 1.45066 4.74934C1.49134 3.96934 1.62066 3.54 1.73066 3.26C1.87066 2.88 2.05 2.62 2.33066 2.33934C2.61 2.06 2.87066 1.88 3.25 1.74066C3.53 1.63 3.95066 1.5 4.73066 1.46C5.58066 1.43 5.83066 1.42 7.97 1.42L8 1.44ZM8 3.892C5.73 3.892 3.892 5.732 3.892 8C3.892 10.27 5.732 12.108 8 12.108C10.27 12.108 12.108 10.268 12.108 8C12.108 5.73 10.268 3.892 8 3.892ZM8 10.6667C6.52666 10.6667 5.33334 9.47334 5.33334 8C5.33334 6.52666 6.52666 5.33334 8 5.33334C9.47334 5.33334 10.6667 6.52666 10.6667 8C10.6667 9.47334 9.47334 10.6667 8 10.6667ZM13.2306 3.73C13.2306 4.26 12.8 4.69 12.2706 4.69C11.7407 4.69 11.3107 4.25934 11.3107 3.73C11.3107 3.20066 11.7414 2.77066 12.2706 2.77066C12.7993 2.77 13.2306 3.20066 13.2306 3.73Z" fill="white"/>
</svg>
