<svg width="16" height="14" viewBox="0 0 16 14" fill="none" xmlns="http://www.w3.org/2000/svg">
<path d="M15.9694 2.04573C15.3793 2.30507 14.7494 2.48173 14.0859 2.56241C14.7619 2.15507 15.2819 1.51307 15.528 0.74707C14.8939 1.11707 14.1913 1.38641 13.4433 1.53641C12.8461 0.89707 11.9946 0.49707 11.0493 0.49707C9.238 0.49707 7.76934 1.96573 7.76934 3.77507C7.76934 4.03507 7.79934 4.28507 7.854 4.5244C5.12734 4.39573 2.71066 3.08641 1.09333 1.10707C0.808666 1.58841 0.649334 2.14773 0.649334 2.75707C0.649334 3.89707 1.22934 4.89907 2.108 5.48773C1.57 5.47041 1.064 5.32241 0.622666 5.07707V5.11773C0.622666 6.70773 1.75134 8.03373 3.25334 8.33573C2.978 8.40973 2.68734 8.44973 2.38934 8.44973C2.18 8.44973 1.97934 8.42973 1.77866 8.3924C2.19934 9.6944 3.40866 10.6437 4.848 10.6704C3.728 11.5497 2.30866 12.0737 0.78 12.0737C0.52 12.0737 0.260666 12.0584 0 12.0291C1.45934 12.9584 3.17866 13.5017 5.038 13.5017C11.074 13.5017 14.3706 8.5044 14.3706 4.17773C14.3706 4.03841 14.3706 3.89773 14.3607 3.75773C15.0014 3.2984 15.5607 2.71773 16.0007 2.05907L15.9694 2.04573Z" fill="white"/>
</svg>
